<?xml version="1.0" encoding="UTF-8"?>
<svg width="700pt" height="700pt" version="1.1" viewBox="0 0 700 700" xmlns="http://www.w3.org/2000/svg" xmlns:xlink="http://www.w3.org/1999/xlink">
 <defs>
  <symbol id="v" overflow="visible">
   <path d="m18.766-1.125c-0.96875 0.5-1.9805 0.875-3.0312 1.125-1.043 0.25781-2.1367 0.39062-3.2812 0.39062-3.3984 0-6.0898-0.94531-8.0781-2.8438-1.9922-1.9062-2.9844-4.4844-2.9844-7.7344 0-3.2578 0.99219-5.8359 2.9844-7.7344 1.9883-1.9062 4.6797-2.8594 8.0781-2.8594 1.1445 0 2.2383 0.13281 3.2812 0.39062 1.0508 0.25 2.0625 0.625 3.0312 1.125v4.2188c-0.98047-0.65625-1.9453-1.1406-2.8906-1.4531-0.94922-0.3125-1.9492-0.46875-3-0.46875-1.875 0-3.3516 0.60547-4.4219 1.8125-1.0742 1.1992-1.6094 2.8555-1.6094 4.9688 0 2.1055 0.53516 3.7617 1.6094 4.9688 1.0703 1.1992 2.5469 1.7969 4.4219 1.7969 1.0508 0 2.0508-0.14844 3-0.45312 0.94531-0.3125 1.9102-0.80078 2.8906-1.4688z"/>
  </symbol>
  <symbol id="d" overflow="visible">
   <path d="m13.734-11.141c-0.4375-0.19531-0.87109-0.34375-1.2969-0.4375-0.41797-0.10156-0.83984-0.15625-1.2656-0.15625-1.2617 0-2.2305 0.40625-2.9062 1.2188-0.67969 0.80469-1.0156 1.9531-1.0156 3.4531v7.0625h-4.8906v-15.312h4.8906v2.5156c0.625-1 1.3438-1.7266 2.1562-2.1875 0.82031-0.46875 1.8008-0.70312 2.9375-0.70312 0.16406 0 0.34375 0.011719 0.53125 0.03125 0.19531 0.011719 0.47656 0.039062 0.84375 0.078125z"/>
  </symbol>
  <symbol id="a" overflow="visible">
   <path d="m17.641-7.7031v1.4062h-11.453c0.125 1.1484 0.53906 2.0078 1.25 2.5781 0.70703 0.57422 1.7031 0.85938 2.9844 0.85938 1.0312 0 2.082-0.14844 3.1562-0.45312 1.082-0.3125 2.1914-0.77344 3.3281-1.3906v3.7656c-1.1562 0.4375-2.3125 0.76562-3.4688 0.98438-1.1562 0.22656-2.3125 0.34375-3.4688 0.34375-2.7734 0-4.9297-0.70312-6.4688-2.1094-1.5312-1.4062-2.2969-3.3789-2.2969-5.9219 0-2.5 0.75391-4.4609 2.2656-5.8906 1.5078-1.4375 3.582-2.1562 6.2188-2.1562 2.4062 0 4.332 0.73047 5.7812 2.1875 1.4453 1.4492 2.1719 3.3828 2.1719 5.7969zm-5.0312-1.625c0-0.92578-0.27344-1.6719-0.8125-2.2344-0.54297-0.57031-1.25-0.85938-2.125-0.85938-0.94922 0-1.7188 0.26562-2.3125 0.79688s-0.96484 1.2969-1.1094 2.2969z"/>
  </symbol>
  <symbol id="j" overflow="visible">
   <path d="m9.2188-6.8906c-1.0234 0-1.793 0.17188-2.3125 0.51562-0.51172 0.34375-0.76562 0.85547-0.76562 1.5312 0 0.625 0.20703 1.1172 0.625 1.4688 0.41406 0.34375 0.98828 0.51562 1.7188 0.51562 0.92578 0 1.7031-0.32812 2.3281-0.98438 0.63281-0.66406 0.95312-1.4922 0.95312-2.4844v-0.5625zm7.4688-1.8438v8.7344h-4.9219v-2.2656c-0.65625 0.92969-1.3984 1.6055-2.2188 2.0312-0.82422 0.41406-1.8242 0.625-3 0.625-1.5859 0-2.8711-0.45703-3.8594-1.375-0.99219-0.92578-1.4844-2.1289-1.4844-3.6094 0-1.7891 0.61328-3.1016 1.8438-3.9375 1.2383-0.84375 3.1797-1.2656 5.8281-1.2656h2.8906v-0.39062c0-0.76953-0.30859-1.332-0.92188-1.6875-0.61719-0.36328-1.5703-0.54688-2.8594-0.54688-1.0547 0-2.0312 0.10547-2.9375 0.3125-0.89844 0.21094-1.7305 0.52344-2.5 0.9375v-3.7344c1.0391-0.25 2.0859-0.44141 3.1406-0.57812 1.0625-0.13281 2.125-0.20312 3.1875-0.20312 2.7578 0 4.75 0.54688 5.9688 1.6406 1.2266 1.0859 1.8438 2.8555 1.8438 5.3125z"/>
  </symbol>
  <symbol id="c" overflow="visible">
   <path d="m7.7031-19.656v4.3438h5.0469v3.5h-5.0469v6.5c0 0.71094 0.14062 1.1875 0.42188 1.4375s0.83594 0.375 1.6719 0.375h2.5156v3.5h-4.1875c-1.9375 0-3.3125-0.39844-4.125-1.2031-0.80469-0.8125-1.2031-2.1797-1.2031-4.1094v-6.5h-2.4219v-3.5h2.4219v-4.3438z"/>
  </symbol>
  <symbol id="i" overflow="visible">
   <path d="m12.766-13.078v-8.2031h4.9219v21.281h-4.9219v-2.2188c-0.66797 0.90625-1.4062 1.5703-2.2188 1.9844s-1.7578 0.625-2.8281 0.625c-1.8867 0-3.4336-0.75-4.6406-2.25-1.2109-1.5-1.8125-3.4258-1.8125-5.7812 0-2.3633 0.60156-4.2969 1.8125-5.7969 1.207-1.5 2.7539-2.25 4.6406-2.25 1.0625 0 2 0.21484 2.8125 0.64062 0.82031 0.42969 1.5664 1.0859 2.2344 1.9688zm-3.2188 9.9219c1.0391 0 1.8359-0.37891 2.3906-1.1406 0.55078-0.76953 0.82812-1.8828 0.82812-3.3438 0-1.457-0.27734-2.5664-0.82812-3.3281-0.55469-0.76953-1.3516-1.1562-2.3906-1.1562-1.043 0-1.8398 0.38672-2.3906 1.1562-0.55469 0.76172-0.82812 1.8711-0.82812 3.3281 0 1.4609 0.27344 2.5742 0.82812 3.3438 0.55078 0.76172 1.3477 1.1406 2.3906 1.1406z"/>
  </symbol>
  <symbol id="h" overflow="visible">
   <path d="m10.5-3.1562c1.0508 0 1.8516-0.37891 2.4062-1.1406 0.55078-0.76953 0.82812-1.8828 0.82812-3.3438 0-1.457-0.27734-2.5664-0.82812-3.3281-0.55469-0.76953-1.3555-1.1562-2.4062-1.1562-1.0547 0-1.8594 0.38672-2.4219 1.1562-0.55469 0.77344-0.82812 1.8828-0.82812 3.3281 0 1.4492 0.27344 2.5586 0.82812 3.3281 0.5625 0.77344 1.3672 1.1562 2.4219 1.1562zm-3.25-9.9219c0.67578-0.88281 1.4219-1.5391 2.2344-1.9688 0.82031-0.42578 1.7656-0.64062 2.8281-0.64062 1.8945 0 3.4453 0.75 4.6562 2.25 1.207 1.5 1.8125 3.4336 1.8125 5.7969 0 2.3555-0.60547 4.2812-1.8125 5.7812-1.2109 1.5-2.7617 2.25-4.6562 2.25-1.0625 0-2.0078-0.21094-2.8281-0.625-0.8125-0.42578-1.5586-1.0859-2.2344-1.9844v2.2188h-4.8906v-21.281h4.8906z"/>
  </symbol>
  <symbol id="g" overflow="visible">
   <path d="m0.34375-15.312h4.8906l4.125 10.391 3.5-10.391h4.8906l-6.4375 16.766c-0.64844 1.6953-1.4023 2.8828-2.2656 3.5625-0.86719 0.6875-2 1.0312-3.4062 1.0312h-2.8438v-3.2188h1.5312c0.83203 0 1.4375-0.13672 1.8125-0.40625 0.38281-0.26172 0.67969-0.73047 0.89062-1.4062l0.14062-0.42188z"/>
  </symbol>
  <symbol id="f" overflow="visible">
   <path d="m2.5781-20.406h5.25v16.422h9.25v3.9844h-14.5z"/>
  </symbol>
  <symbol id="e" overflow="visible">
   <path d="m2.3594-21.281h4.8906v21.281h-4.8906z"/>
  </symbol>
  <symbol id="u" overflow="visible">
   <path d="m2.3594-15.312h4.8906v15.312h-4.8906zm0-5.9688h4.8906v4h-4.8906z"/>
  </symbol>
  <symbol id="t" overflow="visible">
   <path d="m14.312-14.828v3.7188c-1.043-0.4375-2.0547-0.76562-3.0312-0.98438-0.98047-0.21875-1.9023-0.32812-2.7656-0.32812-0.92969 0-1.6211 0.11719-2.0781 0.34375-0.44922 0.23047-0.67188 0.58984-0.67188 1.0781 0 0.38672 0.17188 0.68359 0.51562 0.89062 0.34375 0.21094 0.95703 0.36719 1.8438 0.46875l0.85938 0.125c2.5078 0.32422 4.1953 0.85156 5.0625 1.5781 0.86328 0.73047 1.2969 1.8711 1.2969 3.4219 0 1.6367-0.60547 2.8672-1.8125 3.6875-1.1992 0.8125-2.9922 1.2188-5.375 1.2188-1.0234 0-2.0742-0.078125-3.1562-0.23438-1.0742-0.15625-2.1797-0.39453-3.3125-0.71875v-3.7188c0.96875 0.48047 1.9609 0.83984 2.9844 1.0781 1.0312 0.23047 2.0781 0.34375 3.1406 0.34375 0.95703 0 1.6758-0.12891 2.1562-0.39062 0.47656-0.26953 0.71875-0.66406 0.71875-1.1875 0-0.4375-0.16797-0.75781-0.5-0.96875-0.33594-0.21875-0.99609-0.38281-1.9844-0.5l-0.85938-0.10938c-2.1797-0.26953-3.7031-0.77344-4.5781-1.5156-0.875-0.73828-1.3125-1.8594-1.3125-3.3594 0-1.625 0.55078-2.8281 1.6562-3.6094 1.1133-0.78906 2.8203-1.1875 5.125-1.1875 0.89453 0 1.8359 0.074219 2.8281 0.21875 1 0.13672 2.082 0.35156 3.25 0.64062z"/>
  </symbol>
  <symbol id="b" overflow="visible">
   <path d="m9.6406-12.188c-1.0859 0-1.9141 0.39062-2.4844 1.1719-0.57422 0.78125-0.85938 1.9062-0.85938 3.375s0.28516 2.5938 0.85938 3.375c0.57031 0.77344 1.3984 1.1562 2.4844 1.1562 1.0625 0 1.875-0.38281 2.4375-1.1562 0.57031-0.78125 0.85938-1.9062 0.85938-3.375s-0.28906-2.5938-0.85938-3.375c-0.5625-0.78125-1.375-1.1719-2.4375-1.1719zm0-3.5c2.6328 0 4.6914 0.71484 6.1719 2.1406 1.4766 1.418 2.2188 3.3867 2.2188 5.9062 0 2.5117-0.74219 4.4805-2.2188 5.9062-1.4805 1.418-3.5391 2.125-6.1719 2.125-2.6484 0-4.7148-0.70703-6.2031-2.125-1.4922-1.4258-2.2344-3.3945-2.2344-5.9062 0-2.5195 0.74219-4.4883 2.2344-5.9062 1.4883-1.4258 3.5547-2.1406 6.2031-2.1406z"/>
  </symbol>
  <symbol id="s" overflow="visible">
   <path d="m12.422-21.281v3.2188h-2.7031c-0.6875 0-1.1719 0.125-1.4531 0.375-0.27344 0.25-0.40625 0.6875-0.40625 1.3125v1.0625h4.1875v3.5h-4.1875v11.812h-4.8906v-11.812h-2.4375v-3.5h2.4375v-1.0625c0-1.6641 0.46094-2.8984 1.3906-3.7031 0.92578-0.80078 2.3672-1.2031 4.3281-1.2031z"/>
  </symbol>
  <symbol id="r" overflow="visible">
   <path d="m16.547-12.766c0.61328-0.94531 1.3477-1.6719 2.2031-2.1719 0.85156-0.5 1.7891-0.75 2.8125-0.75 1.7578 0 3.0977 0.54688 4.0156 1.6406 0.92578 1.0859 1.3906 2.6562 1.3906 4.7188v9.3281h-4.9219v-7.9844-0.35938c0.007813-0.13281 0.015625-0.32031 0.015625-0.5625 0-1.082-0.16406-1.8633-0.48438-2.3438-0.3125-0.48828-0.82422-0.73438-1.5312-0.73438-0.92969 0-1.6484 0.38672-2.1562 1.1562-0.51172 0.76172-0.77344 1.8672-0.78125 3.3125v7.5156h-4.9219v-7.9844c0-1.6953-0.14844-2.7852-0.4375-3.2656-0.29297-0.48828-0.8125-0.73438-1.5625-0.73438-0.9375 0-1.6641 0.38672-2.1719 1.1562-0.51172 0.76172-0.76562 1.8594-0.76562 3.2969v7.5312h-4.9219v-15.312h4.9219v2.2344c0.60156-0.86328 1.2891-1.5156 2.0625-1.9531 0.78125-0.4375 1.6406-0.65625 2.5781-0.65625 1.0625 0 2 0.25781 2.8125 0.76562 0.8125 0.51172 1.4258 1.2305 1.8438 2.1562z"/>
  </symbol>
  <symbol id="q" overflow="visible">
   <path d="m17.75-9.3281v9.3281h-4.9219v-7.1094c0-1.3438-0.03125-2.2656-0.09375-2.7656s-0.16797-0.86719-0.3125-1.1094c-0.1875-0.3125-0.44922-0.55469-0.78125-0.73438-0.32422-0.17578-0.69531-0.26562-1.1094-0.26562-1.0234 0-1.8242 0.39844-2.4062 1.1875-0.58594 0.78125-0.875 1.8711-0.875 3.2656v7.5312h-4.8906v-21.281h4.8906v8.2031c0.73828-0.88281 1.5195-1.5391 2.3438-1.9688 0.83203-0.42578 1.75-0.64062 2.75-0.64062 1.7695 0 3.1133 0.54688 4.0312 1.6406 0.91406 1.0859 1.375 2.6562 1.375 4.7188z"/>
  </symbol>
  <symbol id="p" overflow="visible">
   <path d="m2.5781-20.406h5.875l7.4219 14v-14h4.9844v20.406h-5.875l-7.4219-14v14h-4.9844z"/>
  </symbol>
  <symbol id="o" overflow="visible">
   <path d="m2.1875-5.9688v-9.3438h4.9219v1.5312c0 0.83594-0.007813 1.875-0.015625 3.125-0.011719 1.25-0.015625 2.0859-0.015625 2.5 0 1.2422 0.03125 2.1328 0.09375 2.6719 0.070313 0.54297 0.17969 0.93359 0.32812 1.1719 0.20703 0.32422 0.47266 0.57422 0.79688 0.75 0.32031 0.16797 0.69141 0.25 1.1094 0.25 1.0195 0 1.8203-0.39062 2.4062-1.1719 0.58203-0.78125 0.875-1.8672 0.875-3.2656v-7.5625h4.8906v15.312h-4.8906v-2.2188c-0.74219 0.89844-1.5234 1.5586-2.3438 1.9844-0.82422 0.41406-1.7344 0.625-2.7344 0.625-1.7617 0-3.1055-0.53906-4.0312-1.625-0.92969-1.082-1.3906-2.6602-1.3906-4.7344z"/>
  </symbol>
  <symbol id="n" overflow="visible">
   <path d="m17.75-9.3281v9.3281h-4.9219v-7.1406c0-1.3203-0.03125-2.2344-0.09375-2.7344s-0.16797-0.86719-0.3125-1.1094c-0.1875-0.3125-0.44922-0.55469-0.78125-0.73438-0.32422-0.17578-0.69531-0.26562-1.1094-0.26562-1.0234 0-1.8242 0.39844-2.4062 1.1875-0.58594 0.78125-0.875 1.8711-0.875 3.2656v7.5312h-4.8906v-15.312h4.8906v2.2344c0.73828-0.88281 1.5195-1.5391 2.3438-1.9688 0.83203-0.42578 1.75-0.64062 2.75-0.64062 1.7695 0 3.1133 0.54688 4.0312 1.6406 0.91406 1.0859 1.375 2.6562 1.375 4.7188z"/>
  </symbol>
  <symbol id="m" overflow="visible">
   <path d="m2.5781-20.406h8.7344c2.5938 0 4.582 0.57812 5.9688 1.7344 1.3945 1.1484 2.0938 2.7891 2.0938 4.9219 0 2.1367-0.69922 3.7812-2.0938 4.9375-1.3867 1.1562-3.375 1.7344-5.9688 1.7344h-3.4844v7.0781h-5.25zm5.25 3.8125v5.7031h2.9219c1.0195 0 1.8047-0.25 2.3594-0.75 0.5625-0.5 0.84375-1.2031 0.84375-2.1094 0-0.91406-0.28125-1.6172-0.84375-2.1094-0.55469-0.48828-1.3398-0.73438-2.3594-0.73438z"/>
  </symbol>
  <symbol id="l" overflow="visible">
   <path d="m2.3594-15.312h4.8906v15.031c0 2.0508-0.49609 3.6172-1.4844 4.7031-0.98047 1.082-2.4062 1.625-4.2812 1.625h-2.4219v-3.2188h0.85938c0.92578 0 1.5625-0.21094 1.9062-0.625 0.35156-0.41797 0.53125-1.2461 0.53125-2.4844zm0-5.9688h4.8906v4h-4.8906z"/>
  </symbol>
  <symbol id="k" overflow="visible">
   <path d="m14.719-14.828v3.9844c-0.65625-0.45703-1.3242-0.79688-2-1.0156-0.66797-0.21875-1.3594-0.32812-2.0781-0.32812-1.3672 0-2.4336 0.40234-3.2031 1.2031-0.76172 0.79297-1.1406 1.9062-1.1406 3.3438 0 1.4297 0.37891 2.543 1.1406 3.3438 0.76953 0.79297 1.8359 1.1875 3.2031 1.1875 0.75781 0 1.4844-0.10938 2.1719-0.32812 0.6875-0.22656 1.3203-0.56641 1.9062-1.0156v4c-0.76172 0.28125-1.5391 0.48828-2.3281 0.625-0.78125 0.14453-1.5742 0.21875-2.375 0.21875-2.7617 0-4.9219-0.70703-6.4844-2.125-1.5547-1.4141-2.3281-3.3828-2.3281-5.9062 0-2.5312 0.77344-4.5039 2.3281-5.9219 1.5625-1.4141 3.7227-2.125 6.4844-2.125 0.80078 0 1.5938 0.074219 2.375 0.21875 0.78125 0.13672 1.5547 0.35156 2.3281 0.64062z"/>
  </symbol>
 </defs>
 <g>
  <path d="m164 115.33c2.7227 0 5.4102-0.45312 8.0273-1.3516 5.5664 4.5781 12.441 7.0586 19.727 7.0586 7.2812 0 14.156-2.4844 19.727-7.0586 2.6172 0.89844 5.3047 1.3516 8.0273 1.3516 13.402 0 24.309-10.398 25.367-23.531 4.1367-1.1484 8.0273-3.0469 11.402-5.8203 2.6172 0.89844 5.3047 1.3516 8.0273 1.3516 14.102 0 25.574-11.473 25.574-25.574 0-14.105-11.473-25.578-25.574-25.578-2.7227 0-5.4102 0.45312-8.0312 1.3516-5.5703-4.5781-12.445-7.0586-19.727-7.0586-7.2773 0-14.152 2.4844-19.727 7.0625-2.6211-0.90234-5.3086-1.3555-8.0273-1.3555-13.402 0-24.305 10.398-25.367 23.531-4.1367 1.1484-8.0273 3.0469-11.402 5.8242-2.6211-0.89844-5.3047-1.3516-8.0273-1.3516-14.102 0-25.574 11.473-25.574 25.574 0.003907 14.102 11.48 25.574 25.578 25.574zm44.801-67.949c2.2109 0 4.4258 0.57031 6.582 1.6953 2.2227 1.1523 4.9297 0.69922 6.6484-1.1055 7.7109-8.1211 21.336-8.1211 29.047 0 1.7188 1.8086 4.4336 2.2539 6.6484 1.1055 2.1562-1.125 4.3711-1.6953 6.582-1.6953 7.9258 0 14.375 6.4492 14.375 14.379 0 7.9258-6.4492 14.375-14.375 14.375-2.2148 0-4.4297-0.57031-6.582-1.6914-2.2109-1.1523-4.9258-0.69922-6.6484 1.1055-7.707 8.1172-21.344 8.1172-29.047 0-1.0859-1.1406-2.5625-1.7422-4.0625-1.7422-0.87891 0-1.7656 0.20703-2.5859 0.63281-2.1562 1.125-4.3711 1.6914-6.582 1.6914-7.9258 0-14.375-6.4492-14.375-14.375 0-7.9258 6.4492-14.375 14.375-14.375zm-44.801 28c2.2109 0 4.4258 0.57031 6.582 1.6914 2.2227 1.1523 4.9375 0.70312 6.6484-1.1094 2.2031-2.3203 4.9141-3.9023 7.8086-4.8945 3.7383 9.4961 12.949 16.262 23.758 16.262 2.7227 0 5.4102-0.45312 8.0273-1.3516 4.793 3.9375 10.574 6.2148 16.723 6.8047-1.3945 6.4766-7.1523 11.352-14.043 11.352-2.2148 0-4.4297-0.57031-6.582-1.6914-2.2109-1.1562-4.9258-0.70312-6.6484 1.1055-7.707 8.1172-21.344 8.1133-29.047 0.003907-1.082-1.1445-2.5625-1.7461-4.0625-1.7461-0.87891 0-1.7656 0.20703-2.5859 0.63281-2.1562 1.125-4.3711 1.6914-6.582 1.6914-7.9258 0-14.375-6.4492-14.375-14.375 0.007812-7.9258 6.4531-14.375 14.379-14.375zm274.4 39.949c2.7227 0 5.4141-0.45312 8.0273-1.3516 5.5742 4.5781 12.445 7.0586 19.73 7.0586 7.2773 0 14.152-2.4844 19.727-7.0586 2.6133 0.89844 5.3047 1.3516 8.0273 1.3516 14.098 0 25.57-11.473 25.57-25.574 0-14.102-11.473-25.574-25.57-25.574-2.7227 0-5.4141 0.45312-8.0273 1.3516-5.5742-4.582-12.445-7.0625-19.727-7.0625-7.2852 0-14.16 2.4844-19.73 7.0625-2.6133-0.89844-5.3047-1.3516-8.0273-1.3516-14.098 0-25.57 11.473-25.57 25.574-0.003907 14.102 11.473 25.574 25.57 25.574zm0-39.949c2.2148 0 4.4297 0.57031 6.5781 1.6914 2.2148 1.1523 4.9336 0.70312 6.6484-1.1055 7.7109-8.1172 21.34-8.125 29.055 0 1.7188 1.8086 4.4336 2.2617 6.6484 1.1055 2.1484-1.125 4.3633-1.6914 6.5781-1.6914 7.9258 0 14.371 6.4492 14.371 14.375 0 7.9258-6.4492 14.375-14.371 14.375-2.2148 0-4.4297-0.57031-6.5781-1.6914-2.2188-1.1562-4.9375-0.70703-6.6484 1.1055-7.7109 8.1172-21.344 8.1172-29.055 0-1.082-1.1406-2.5586-1.7422-4.0586-1.7422-0.87891 0-1.7734 0.20703-2.5938 0.63281-2.1484 1.125-4.3633 1.6914-6.5781 1.6914-7.9258 0-14.371-6.4492-14.371-14.375 0.003906-7.9219 6.4492-14.371 14.375-14.371zm-143.09 180.84h-37.832c-3.0938 0-5.6016 2.5078-5.6016 5.6016v35.219c0 3.0938 2.5078 5.6016 5.6016 5.6016h37.832c3.0938 0 5.6016-2.5039 5.6016-5.6016l-0.003906-35.219c0-3.0938-2.5078-5.6016-5.5977-5.6016zm-5.6016 35.219h-26.633v-24.02h26.633zm72.496-35.219h-37.836c-3.0938 0-5.6016 2.5078-5.6016 5.6016v35.219c0 3.0938 2.5078 5.6016 5.6016 5.6016h37.836c3.0938 0 5.6016-2.5039 5.6016-5.6016v-35.219c0-3.0938-2.5078-5.6016-5.6016-5.6016zm-5.6016 35.219h-26.633v-24.02h26.637zm72.496-35.219h-37.832c-3.0938 0-5.6016 2.5078-5.6016 5.6016v35.219c0 3.0938 2.5039 5.6016 5.6016 5.6016h37.832c3.0938 0 5.6016-2.5039 5.6016-5.6016l-0.003907-35.219c0-3.0938-2.5039-5.6016-5.5977-5.6016zm-5.6016 35.219h-26.633v-24.02h26.633zm-80.211-127.05c-21.055 0-38.184 17.129-38.184 38.184 0 21.055 17.129 38.184 38.184 38.184s38.184-17.129 38.184-38.184c0-21.059-17.129-38.184-38.184-38.184zm0 65.164c-14.879 0-26.984-12.105-26.984-26.984s12.105-26.984 26.984-26.984 26.984 12.105 26.984 26.984-12.102 26.984-26.984 26.984zm0-50.234c-12.82 0-23.254 10.434-23.254 23.254 0 12.82 10.434 23.254 23.254 23.254s23.254-10.434 23.254-23.254c0-12.824-10.43-23.254-23.254-23.254zm14 26.891h1.5156c-1.3789 5.8789-5.9961 10.496-11.871 11.879v-1.5156c0-2.0078-1.6289-3.6406-3.6406-3.6406-2.0078 0-3.6406 1.6289-3.6406 3.6406v1.5156c-5.8789-1.3828-10.496-6-11.879-11.879h1.5156c2.0078 0 3.6406-1.6289 3.6406-3.6406 0-2.0078-1.6289-3.6406-3.6406-3.6406h-1.5156c1.3828-5.8789 6-10.496 11.879-11.879v1.5156c0 2.0078 1.6289 3.6406 3.6406 3.6406 2.0078 0 3.6406-1.6289 3.6406-3.6406v-1.5156c5.8789 1.3828 10.492 6 11.871 11.879h-1.5156c-2.0078 0-3.6406 1.6289-3.6406 3.6406 0 2.0117 1.6289 3.6406 3.6406 3.6406zm270.22 171.64-8.9805-75.82c-0.015624-0.15234-0.042968-0.30469-0.078124-0.46094-3.2539-16.008-14.617-29.367-29.656-34.867-3.5664-1.3125-7.4922-1.0703-11.047 0.66406-0.44141 0.21484-0.94531 0.41406-1.4492 0.61719l0.003906-7.1953c8.0156-5.6875 14.512-14.336 18.742-24.125 0.55469 0.12109 1.0938 0.29297 1.6641 0.35547 0.61719 0.066406 1.2305 0.10156 1.8438 0.10156 7.8594 0 14.797-5.5391 16.219-13.277 0.74609-4.0664-0.18359-8.1055-2.5977-11.383 0.98828-3.2461 1.5586-6.8477 1.5586-10.973l-0.003907-8.2812c0-27.168-23.707-49.273-52.844-49.273h-10.5c-29.137 0-52.84 22.105-52.84 49.273v8.2812c0 2.4297 0.19141 4.6836 0.53516 6.8047h-38.363c-1.5352-2.9922-3.7773-5.5898-6.6211-7.5v0.003906l-99.176-66.586c-1.582-1.0625-3.2773-1.8555-5.0312-2.3984v-18.434h34.395c6.1758 0 11.199-5.0234 11.199-11.199v-19.426c0-6.1758-5.0273-11.199-11.199-11.199l-39.996-0.003906c-3.0938 0-5.6016 2.5078-5.6016 5.6016v54.66c-1.7539 0.54297-3.4531 1.3359-5.0352 2.3984l-99.164 66.586c-2.8477 1.9102-5.0898 4.5078-6.6211 7.5h-24.574l0.15234-15.09c0-27.168-23.707-49.273-52.844-49.273h-10.496c-29.137 0-52.844 22.105-52.844 49.332l0.21875 21.445c-1.3789 2.8008-1.8438 5.957-1.2578 9.1367 0.26562 1.4414 0.77344 2.7695 1.3906 4.0352l0.13281 13.23c0 7.7812 6.332 14.109 14.109 14.109h16.355c1.0195 1.043 2.0742 2.0312 3.1641 2.9688v8.4883c-3.0312-1.0156-6.2227-1.0547-9.1836 0.027344-15.055 5.5-26.422 18.871-29.742 35.344l-8.9766 75.801c-0.1875 1.5859 0.3125 3.1758 1.375 4.375 0.18359 0.20703 0.44141 0.30469 0.65234 0.48047l-0.17187 1.4453c-0.53906 4.5 0.87891 9.0234 3.8867 12.414 3.0078 3.3906 7.3281 5.332 11.859 5.332h5.1914l-0.96875 33.82c-0.042969 1.5078 0.52734 2.9766 1.582 4.0625 1.0547 1.082 2.5039 1.6953 4.0156 1.6953h3.1172v58.766c-11.055 1.2812-19.699 10.594-19.699 21.988 0 4.0234 3.2773 7.3008 7.3008 7.3008h44.375c4.0234 0 7.3008-3.2773 7.3008-7.3008v-7.3398c0-3.457-1.2305-6.6055-3.2148-9.1367 0.046875-0.5625 0.125-1.1094 0.125-1.6914l1.5391-62.59h7.2266l1.5352 62.453c0 0.62891 0.078126 1.2188 0.13281 1.8203-1.9883 2.5312-3.2227 5.6836-3.2227 9.1445v7.3398c0 4.0234 3.2773 7.3008 7.3008 7.3008h44.375c4.0234 0 7.3008-3.2773 7.3008-7.3008 0-11.395-8.6406-20.707-19.695-21.988l-0.003907-58.77h3.1172c1.5117 0 2.9609-0.61328 4.0156-1.6953 1.0547-1.0898 1.625-2.5547 1.582-4.0625l-0.96484-33.82h5.1914c1.3047 0 2.5742-0.20312 3.8203-0.51562h295.09c1.2422 0.30859 2.5156 0.51562 3.8203 0.51562h6.6328v96.82c0 1.0273 0.11719 2.0234 0.30469 2.9883-8.0352 3.3594-13.699 11.289-13.699 20.527 0 4.0234 3.2773 7.3008 7.3008 7.3008h44.375c4.0234 0 7.3008-3.2773 7.3008-7.3008v-7.3398c0-3.8711-1.5195-7.375-3.9492-10.027 0.80469-1.8164 1.3008-3.8281 1.2969-5.9688l2.5742-79.301c0.027344-0.74219 0.89062-1.5352 2.1367-1.5352 1.2539 0 2.1172 0.79297 2.1445 1.5352l2.5664 79.121c0 2.2109 0.50391 4.2734 1.3203 6.125-2.4414 2.6562-3.9688 6.168-3.9688 10.051v7.3398c0 4.0234 3.2773 7.3008 7.3008 7.3008h44.375c4.0234 0 7.3008-3.2773 7.3008-7.3008 0-9.2383-5.6641-17.172-13.699-20.527 0.1875-0.96484 0.30469-1.957 0.30469-2.9883l-0.011718-96.82h6.6445c4.5352 0 8.8594-1.9453 11.867-5.3359 3.0078-3.3906 4.418-7.9141 3.8828-12.41l-0.17578-1.4492c0.20703-0.17188 0.46484-0.26953 0.64453-0.47266 1.0703-1.1953 1.5703-2.7891 1.3828-4.375zm-278.62-295.1h34.395l0.003906 19.426-34.398-0.003906zm-156.42 139.06c-0.41797 2.2656-2.6367 3.9336-5.0742 4.0078 0.66797-2.7344 1.1367-5.5 1.4375-8.2578 0.058594 0.003906 0.11328-0.019532 0.17188-0.011719 1.207 0.13281 2.2266 0.67969 2.8672 1.5352 0.39844 0.54297 0.83203 1.457 0.59766 2.7266zm-1.6719 14.879-0.046876 4.4141c0 1.6055-1.3047 2.9102-2.9102 2.9102h-7.8438c1.3906-2.3594 2.6602-4.8125 3.7578-7.3555 0.55469 0.12109 1.0938 0.29297 1.6641 0.35547 0.61719 0.066406 1.2266 0.10156 1.8359 0.10156 1.2148 0 2.3906-0.17578 3.543-0.42578zm-51.691-81.562h10.496c22.965 0 41.645 17.078 41.645 38.016l-0.13672 13.461c-0.29688-0.050781-0.57813-0.15625-0.88281-0.1875-0.42969-0.046874-0.84766-0.007812-1.2734-0.023437-0.22266-2.4961-0.5625-5.0117-1.1445-7.6172-0.5625-2.5273-2.7852-4.3359-5.375-4.3789-12.52-0.20312-24.332-5.6562-31.602-14.582-3.1875-3.9102-9.7578-3.918-12.957 0.003906-7.2695 8.9258-19.082 14.379-31.602 14.578-2.5898 0.042969-4.8125 1.8555-5.375 4.3789-0.58203 2.6055-0.91797 5.125-1.1445 7.6211-0.42578 0.011719-0.84375-0.03125-1.2734 0.015625-0.30078 0.03125-0.58203 0.13672-0.87891 0.1875l-0.13672-13.402c-0.003906-20.992 18.676-38.07 41.641-38.07zm-42.273 63.957c0.64062-0.85547 1.6602-1.4023 2.8633-1.5352 0.054687-0.007813 0.11328-0.003906 0.16797-0.007813 0.30078 2.7695 0.76953 5.5391 1.4414 8.2852-2.4297-0.070313-4.6562-1.7422-5.0703-4.0117-0.23438-1.2773 0.19531-2.1875 0.59766-2.7305zm4.0234 24.93c-1.6055 0-2.9102-1.3047-2.9102-2.9688l-0.042969-4.3555c1.1523 0.25 2.3281 0.42578 3.543 0.42578 0.60547 0 1.2188-0.03125 1.8359-0.10156 0.57031-0.0625 1.1133-0.23438 1.668-0.35547 1.0977 2.543 2.3672 4.9961 3.7578 7.3555zm9.8203-32.805c0-1.9375 0.13281-3.8867 0.40625-5.875 13.012-1.2578 24.809-6.8945 33.273-15.922 8.4609 9.0273 20.258 14.664 33.27 15.922 0.26953 1.9922 0.40625 3.9375 0.40625 5.875 0 23.312-16.367 45.352-33.676 45.352-17.316 0.003906-33.68-22.035-33.68-45.352zm60.715 66.219c0.45703-0.22266 1.3555-0.53906 2.2734-0.20703 1.1211 0.41016 2.1914 0.92188 3.2578 1.4453-1.3984 1.5586-5.2266 4.0664-11.73 4.7891-3.1055 0.34766-6.8242-0.44531-10.207-1.75 6.4961-0.76953 12.215-2.2266 16.406-4.2773zm-17.574-11.059v4.1953c-2.9883 0.35938-6.1953 0.55859-9.4648 0.55859s-6.4766-0.19531-9.4648-0.55859v-4.1953c3.0312 0.89844 6.1953 1.3945 9.4648 1.3945s6.4297-0.49609 9.4648-1.3945zm-38.777 10.848c0.91797-0.33203 1.8203-0.011719 2.2734 0.21094 4.1875 2.0469 9.9023 3.5039 16.391 4.2734-3.375 1.2969-7.0898 2.0898-10.195 1.7539-6.5039-0.72266-10.328-3.2344-11.727-4.793 1.0664-0.51953 2.1367-1.0352 3.2578-1.4453zm-19.457 113.48h-5.5117c-1.3516 0-2.5859-0.55859-3.4844-1.5625-0.89844-1.0117-1.3008-2.3086-1.1445-3.6484l0.16406-1.3789h10.16zm35.508 127.63h-35.867c1.5781-4.1719 5.6133-7.1484 10.332-7.1484h21.828c2.043 0 3.707 1.6641 3.707 3.707zm-16.883-76.855h15.328l-1.4414 58.582c-0.24219-0.011719-0.46875-0.070312-0.71094-0.070312l-13.172-0.003907zm-8.5508-11.199 1.8828-65.887h73.625l1.8828 65.887zm68.836 11.199v58.512h-13.176c-0.24219 0-0.46875 0.058593-0.71094 0.070312l-1.4414-58.582zm18.984 76.855h-35.867v-3.4414c0-2.0469 1.6641-3.707 3.707-3.707h21.828c4.7188 0.003907 8.7539 2.9766 10.332 7.1484zm8.6367-129.2c-0.89844 1.0117-2.1367 1.5703-3.4883 1.5703h-5.5117l-0.1875-6.5898h10.16l0.16406 1.3789c0.16406 1.3359-0.24219 2.6328-1.1367 3.6406zm-9.5039-16.219-1.3984-48.891c-0.085938-3.0938-2.7852-5.4258-5.7539-5.4414-3.0938 0.09375-5.5273 2.668-5.4375 5.7578l0.82422 28.852h-72.984l0.82422-28.852c0.085938-3.0898-2.3477-5.6641-5.4375-5.7578-3.0234 0.023438-5.668 2.3477-5.7578 5.4414l-1.3984 48.891h-11.754l8.1641-69.094c1.4648-7.2227 5.1211-13.699 10.191-18.68 3.6641 4.8281 10.738 8.4727 19.586 9.457 0.89844 0.097656 1.8086 0.14453 2.7305 0.14453 6.7539 0 14.012-2.5469 19.344-5.793 6.0547 3.6875 14.59 6.4805 22.078 5.6484 8.8438-0.98438 15.918-4.625 19.582-9.4531 5.0117 4.9258 8.6445 11.312 10.141 18.441l8.2109 69.328zm31.953 17.273h-10.684c0.52734-1.9492 0.73828-3.9883 0.49219-6.0312l-0.17188-1.4453c0.20703-0.17578 0.46875-0.27344 0.65234-0.48047 1.0625-1.1992 1.5625-2.7891 1.375-4.375l-0.90234-7.625h9.2383zm0-28.914h-10.301l-2.5469-21.496h12.848zm0-30.453h-13.91l-2.5469-21.496h16.457zm0-30.457h-17.723c-1.8828-8.1445-5.8711-15.523-11.367-21.496h29.09zm0-30.453h-40.32c-2.1562-1.2266-4.3789-2.3398-6.7344-3.1992-3.5664-1.3125-7.4961-1.0703-11.043 0.66406-0.44141 0.21484-0.94922 0.41797-1.4531 0.61719v-7.2031c2.293-1.625 4.4492-3.4961 6.4727-5.5703h16.355c5.1055 0 9.543-2.7539 12.023-6.8086h24.699zm0-30.453h-22.594l0.11719-11.57c0.61719-1.2656 1.1289-2.5938 1.3945-4.0352 0.26953-1.4688 0.25-2.9219 0.09375-4.3516h20.988zm113.13 150.73h-27.258v-38.449h27.258zm38.449 0h-27.25v-38.449h27.25zm2.7734-49.648h-71.246v-9.9414h71.246zm71.902 49.648h-63.477v-39.324c1.6289-0.98047 2.7734-2.6836 2.7734-4.7266v-21.141c0-3.0938-2.5039-5.6016-5.6016-5.6016h-82.445c-3.0938 0-5.6016 2.5039-5.6016 5.6016v21.141c0 2.0391 1.1445 3.7422 2.7656 4.7188v39.332h-63.465v-172.38c0-3.1641 1.4805-6.0469 3.9648-7.7109l99.172-66.586c2.7109-1.8164 6.0664-1.8164 8.7734 0l99.176 66.586v0.003906c2.4844 1.6641 3.9648 4.543 3.9648 7.707zm104.82-133.61c-17.309 0-33.676-22.039-33.676-45.352 0-1.9336 0.13672-3.8789 0.40625-5.875 13.012-1.2578 24.812-6.8945 33.273-15.922 8.4609 9.0273 20.262 14.664 33.273 15.922 0.26953 1.9961 0.40625 3.9414 0.40625 5.875-0.007813 23.312-16.375 45.352-33.684 45.352zm9.4648 9.8047v4.1953c-2.9883 0.35938-6.1953 0.55859-9.4648 0.55859s-6.4727-0.19531-9.4609-0.55859v-4.1953c3.0312 0.89844 6.1914 1.3906 9.4609 1.3906 3.2695 0.003907 6.4336-0.49219 9.4648-1.3906zm38.656-44.555c-0.41406 2.2656-2.6562 3.9219-5.0742 4.0039 0.66797-2.7422 1.1406-5.5117 1.4414-8.2812 0.054688 0.003906 0.10938 0.003906 0.16406 0.007813 1.207 0.13281 2.2266 0.67969 2.8672 1.5352 0.39844 0.54688 0.83594 1.4609 0.60156 2.7344zm-95.012-28.613c0-20.996 18.68-38.074 41.641-38.074h10.5c22.965 0 41.645 17.078 41.645 38.074v8.2812c0 1.8633-0.17187 3.5078-0.42969 5.0547-0.19922-0.03125-0.38281-0.10156-0.58594-0.125-0.42969-0.046875-0.85156-0.003906-1.2773-0.019531-0.22266-2.4922-0.5625-5.0039-1.1406-7.6133-0.5625-2.5312-2.7891-4.3438-5.375-4.3867-12.523-0.20312-24.336-5.6523-31.605-14.578-3.1953-3.9219-9.7656-3.9258-12.961 0.003906-7.2695 8.9258-19.082 14.375-31.605 14.578-2.5859 0.042969-4.8125 1.8555-5.375 4.3867-0.57812 2.6094-0.91797 5.125-1.1406 7.6172-0.42578 0.011718-0.84375-0.03125-1.2773 0.015624-0.19922 0.023438-0.38281 0.09375-0.58203 0.125-0.25781-1.543-0.42969-3.1914-0.42969-5.0547zm-0.62109 25.883c0.63281-0.85547 1.6523-1.4023 2.8594-1.5352 0.054687-0.007813 0.10937-0.003906 0.16406-0.007813 0.30078 2.7656 0.76953 5.5391 1.4414 8.2812-2.457-0.078124-4.6523-1.7422-5.0664-4.0039-0.23438-1.2812 0.19531-2.1953 0.60156-2.7344zm-46.109 0.40625h34.398c-0.15625 1.4258-0.17969 2.8789 0.09375 4.3477 1.3945 7.625 8.5039 13.27 16.297 13.27 0.57812 0 1.1719-0.03125 1.7617-0.09375 0.57031-0.0625 1.1094-0.23047 1.6641-0.35547 0.40625 0.94531 0.85547 1.8672 1.3047 2.7891h-55.52zm0 28.914h60.805c3.457 4.8828 7.5508 9.1172 12.152 12.383v7.2031c-0.50781-0.20312-1.0156-0.40234-1.4609-0.62109-3.5547-1.7344-7.4688-1.9727-11.043-0.66406-2.3516 0.85938-4.5742 1.9727-6.7305 3.1992h-53.727zm0 141.77v-19.957h22.648l-0.90234 7.625c-0.1875 1.5859 0.3125 3.1758 1.3789 4.375 0.17969 0.20312 0.4375 0.30078 0.64453 0.47266l-0.17578 1.457c-0.24219 2.043-0.035157 4.082 0.49609 6.0273zm23.711-28.914h-23.707v-21.496h26.254zm3.6055-30.453h-27.316v-21.496h29.863zm-27.316-30.457v-21.496h42.531c-5.4336 5.9297-9.3984 13.281-11.355 21.496zm39.344 90.34c-1.3516 0-2.5859-0.55859-3.4844-1.5625-0.89844-1.0117-1.3008-2.3086-1.1445-3.6484l0.16406-1.3789h11.871l-0.42188 6.5898zm41.016 127.63h-35.863c1.4141-3.7344 4.832-6.3828 8.9062-6.9258 1.4336 0.68359 3.0039 1.0664 4.6523 1.0664h18.785c0.80078 0 1.582-0.097656 2.3398-0.26953 0.71875 0.67578 1.1836 1.6211 1.1836 2.6875zm13.262-111.47c-7.25 0-13.102 5.4375-13.328 12.375l-2.582 79.484c0 1.5273-0.69922 2.4492-0.875 2.5586l-18.664 0.023438c-0.29687-0.13281-0.99609-1.0547-0.99609-2.582l-0.007813-102.14 1.2422-19.238h70.434l1.2227 18.879v102.5c0 1.5273-0.69922 2.4492-0.875 2.5586l-18.664 0.023438c-0.29688-0.13281-0.99609-1.0547-1-2.7617l-2.5703-79.301c-0.22656-6.9453-6.0859-12.379-13.336-12.379zm49.125 111.47h-35.863v-3.4414c0-1.0664 0.46484-2.0117 1.1836-2.6875 0.75781 0.17188 1.5391 0.26953 2.3398 0.26953h18.785c1.6484 0 3.2188-0.38281 4.6523-1.0664 4.0703 0.54687 7.4883 3.1953 8.9023 6.9258zm8.6406-129.2c-0.89844 1.0117-2.1367 1.5703-3.4883 1.5703h-6.9766l-0.42578-6.5898h11.863l0.16406 1.3789c0.16406 1.3359-0.23828 2.6328-1.1367 3.6406zm-7.9336-16.219c0.10938-0.50781 0.25-1.0156 0.21484-1.543l-3.1875-47.562c-0.20703-3.0859-2.9023-5.332-5.9609-5.2188-3.0898 0.20703-5.4258 2.875-5.2188 5.9609l2.7891 41.59h-76.938l2.793-41.586c0.20703-3.0898-2.1289-5.7578-5.2109-5.9648-3.1836-0.13281-5.7539 2.1328-5.9648 5.2109l-3.1953 47.562c-0.035156 0.53125 0.10156 1.0391 0.21484 1.5469h-10.184l8.1719-69.094c2.4727-12.223 11.105-22.414 22.531-26.594 0.91797-0.33203 1.8281-0.011719 2.2734 0.21094 6.3672 3.1133 16.219 4.8945 27.039 4.8945 10.816 0 20.672-1.7812 27.031-4.8945 0.46094-0.22266 1.3555-0.54688 2.2812-0.21094 11.348 4.1523 19.945 14.238 22.488 26.363l8.2148 69.32zm-36.777-136.71c0 5.5-5.7305 9.8125-13.055 9.8125s-13.055-4.3086-13.055-9.8125c0-2.4727 2.0078-4.4805 4.4805-4.4805 2.3633 0 4.293 1.8242 4.4688 4.1406 0.39844 0.39453 1.8164 1.1914 4.1055 1.1914 2.5195 0 3.9766-0.96484 4.1953-1.3008 0-2.4727 1.957-4.2578 4.4297-4.2578 2.4766 0.003906 4.4297 2.2305 4.4297 4.707zm-25.723-18.824c0 3.332-2.0586 5.8477-4.7852 5.8477-2.7266 0-4.7852-2.5156-4.7852-5.8477s2.0586-5.8477 4.7852-5.8477c2.7266 0 4.7852 2.5156 4.7852 5.8477zm34.91 0c0 3.332-2.0586 5.8477-4.7852 5.8477-2.7266 0-4.7852-2.5156-4.7852-5.8477s2.0547-5.8477 4.7852-5.8477c2.7266 0 4.7852 2.5156 4.7852 5.8477zm-14.871 79.73c0 4.0703-3.3008 7.3711-7.3711 7.3711-4.0703 0-7.3711-3.3008-7.3711-7.3711s3.3008-7.3711 7.3711-7.3711c4.0703 0 7.3711 3.2969 7.3711 7.3711zm0 21.07c0 4.0703-3.3008 7.3711-7.3711 7.3711-4.0703 0-7.3711-3.3008-7.3711-7.3711 0-4.0703 3.3008-7.3711 7.3711-7.3711 4.0703 0 7.3711 3.3008 7.3711 7.3711zm-411.29-10.539c0 4.0703-3.3008 7.3711-7.3711 7.3711s-7.3711-3.3008-7.3711-7.3711 3.3008-7.3711 7.3711-7.3711 7.3711 3.3008 7.3711 7.3711zm0 21.07c0 4.0703-3.3008 7.3711-7.3711 7.3711s-7.3711-3.3008-7.3711-7.3711c0-4.0703 3.3008-7.3711 7.3711-7.3711s7.3711 3.3008 7.3711 7.3711zm-20.426-92.512c0-2.4727 2.0039-4.4805 4.4805-4.4805 2.3594 0 4.293 1.8242 4.4688 4.1406 0.39844 0.39453 1.8125 1.1953 4.1055 1.1953 2.5195 0 3.9766-0.96875 4.1953-1.3008 0-2.4727 1.957-4.2578 4.4297-4.2578s4.4258 2.2266 4.4258 4.6992c0 5.5039-5.7344 9.8125-13.055 9.8125-7.3203 0.007812-13.051-4.3047-13.051-9.8086zm-4.4023-12.973c-2.7266 0-4.7852-2.5156-4.7852-5.8477s2.0586-5.8477 4.7852-5.8477c2.7266 0 4.7852 2.5117 4.7852 5.8477 0 3.332-2.0547 5.8477-4.7852 5.8477zm30.125-5.8477c0-3.332 2.0547-5.8477 4.7852-5.8477 2.7266 0 4.7852 2.5117 4.7852 5.8477 0 3.332-2.0586 5.8477-4.7852 5.8477s-4.7852-2.5156-4.7852-5.8477z"/>
  <use x="70" y="644" xlink:href="#v"/>
  <use x="90.550781" y="644" xlink:href="#d"/>
  <use x="104.359375" y="644" xlink:href="#a"/>
  <use x="123.347656" y="644" xlink:href="#j"/>
  <use x="142.242188" y="644" xlink:href="#c"/>
  <use x="155.628906" y="644" xlink:href="#a"/>
  <use x="174.617188" y="644" xlink:href="#i"/>
  <use x="204.410156" y="644" xlink:href="#h"/>
  <use x="224.453125" y="644" xlink:href="#g"/>
  <use x="252.453125" y="644" xlink:href="#f"/>
  <use x="270.292969" y="644" xlink:href="#e"/>
  <use x="279.890625" y="644" xlink:href="#u"/>
  <use x="289.488281" y="644" xlink:href="#t"/>
  <use x="306.15625" y="644" xlink:href="#b"/>
  <use x="325.390625" y="644" xlink:href="#e"/>
  <use x="334.988281" y="644" xlink:href="#a"/>
  <use x="70" y="672" xlink:href="#s"/>
  <use x="82.183594" y="672" xlink:href="#d"/>
  <use x="95.992188" y="672" xlink:href="#b"/>
  <use x="115.226562" y="672" xlink:href="#r"/>
  <use x="154.152344" y="672" xlink:href="#c"/>
  <use x="167.535156" y="672" xlink:href="#q"/>
  <use x="187.46875" y="672" xlink:href="#a"/>
  <use x="216.207031" y="672" xlink:href="#p"/>
  <use x="239.640625" y="672" xlink:href="#b"/>
  <use x="258.878906" y="672" xlink:href="#o"/>
  <use x="278.8125" y="672" xlink:href="#n"/>
  <use x="308.492188" y="672" xlink:href="#m"/>
  <use x="329.015625" y="672" xlink:href="#d"/>
  <use x="342.820312" y="672" xlink:href="#b"/>
  <use x="362.058594" y="672" xlink:href="#l"/>
  <use x="371.65625" y="672" xlink:href="#a"/>
  <use x="390.648438" y="672" xlink:href="#k"/>
  <use x="407.242188" y="672" xlink:href="#c"/>
 </g>
</svg>
